<svg xmlns="http://www.w3.org/2000/svg" viewBox="0 0 32 32" id="football-team">
  <path d="M26.41,18.1a3.28,3.28,0,1,0-3.91,0l-.43.17a8.33,8.33,0,0,0-3.89-2.45,4.41,4.41,0,1,0-4.61,0,8.32,8.32,0,0,0-3.81,2.36l-.24-.1a3.28,3.28,0,1,0-3.93,0A6.06,6.06,0,0,0,1.5,23.8v0a.5.5,0,0,0,.5.5H30a.5.5,0,0,0,.5-.5A6.06,6.06,0,0,0,26.41,18.1ZM22.17,15.5a2.28,2.28,0,1,1,2.28,2.28A2.28,2.28,0,0,1,22.17,15.5Zm2.28,3.28a5,5,0,0,1,5,4.55H24.17a8.26,8.26,0,0,0-1.46-4.23A4.89,4.89,0,0,1,24.45,18.77Zm-12-6.68a3.41,3.41,0,1,1,3.41,3.41A3.41,3.41,0,0,1,12.46,12.09ZM7.55,13.22A2.28,2.28,0,1,1,5.28,15.5,2.28,2.28,0,0,1,7.55,13.22Zm0,5.55A5,5,0,0,1,9.09,19a8.26,8.26,0,0,0-1.52,4.31h-5A5,5,0,0,1,7.55,18.77Zm5.55,4.55H8.57a7.31,7.31,0,0,1,14.59,0H13.1Z"></path>
</svg>
